<?xml version="1.0" encoding="utf-8"?>
<!-- Generator: Adobe Illustrator 23.0.1, SVG Export Plug-In . SVG Version: 6.00 Build 0)  -->
<svg version="1.1" xmlns="http://www.w3.org/2000/svg" xmlns:xlink="http://www.w3.org/1999/xlink" x="0px" y="0px"
	 viewBox="0 0 1888.3 372.1" style="enable-background:new 0 0 1888.3 372.1;" xml:space="preserve">
<style type="text/css">
	.st0{fill:#FFFFFF;stroke:#000000;stroke-miterlimit:10;}
	.st1{fill:#FFFFFF;stroke:#3FA9F5;stroke-width:5;stroke-miterlimit:10;}
	.st2{fill:#FF7BAC;stroke:#3FA9F5;stroke-width:5;stroke-miterlimit:10;}
	.st3{stroke:#3FA9F5;stroke-width:20;stroke-miterlimit:10;}
</style>
<g id="Lager_2">
	<ellipse class="st0" cx="526.5" cy="167" rx="75.5" ry="81"/>
	<ellipse class="st0" cx="735.5" cy="169" rx="75.5" ry="81"/>
</g>
<g id="Lager_1">
	<title>Happenings</title>
	<g id="text">
		<path class="st1" d="M35.6,2.9V110h123.9V2.9h33.4V259h-33.4V138.9H35.6V259H2.5V2.9H35.6z"/>
		<path class="st1" d="M351,259l-2.7-23.2h-1.1c-10.3,14.4-30,27.4-56.2,27.4c-37.2,0-56.2-26.2-56.2-52.8
			c0-44.5,39.5-68.8,110.6-68.4v-3.8c0-15.2-4.2-42.6-41.8-42.6c-17.1,0-35,5.3-47.9,13.7l-7.6-22c15.2-9.9,37.2-16.3,60.4-16.3
			c56.2,0,69.9,38.4,69.9,75.2V215c0,16,0.8,31.5,3,44.1L351,259z M346,165.1c-36.5-0.8-77.9,5.7-77.9,41.4
			c0,21.7,14.4,31.9,31.5,31.9c23.9,0,39.1-15.2,44.5-30.8c1.2-3.4,1.8-7,1.9-10.6V165.1z"/>
		<path class="st2" d="M648.5,135.1c0-23.6-0.8-42.6-1.5-60h30l1.5,31.5h0.8c13.8-22.5,35.4-35.8,65.4-35.8
			c44.5,0,77.9,37.6,77.9,93.5c0,66.1-40.3,98.8-83.6,98.8c-24.3,0-45.6-10.6-56.6-28.9h-0.8l33.9,133.1l-67-33.2L648.5,135.1z
			 M681.5,184.1c0.1,4.6,0.6,9.2,1.5,13.7c6.1,23.2,26.2,39.2,50.2,39.2c35.3,0,55.9-28.9,55.9-71.1c0-36.9-19.4-68.4-54.7-68.4
			c-22.8,0-44.1,16.3-50.5,41.4c-1.3,4.4-2.1,9-2.3,13.7V184.1z"/>
		<path class="st1" d="M883.3,173.1c0.8,45.2,29.7,63.9,63.1,63.9c23.9,0,38.4-4.2,50.9-9.5l5.7,23.9c-11.8,5.3-31.9,11.4-61.2,11.4
			c-56.6,0-90.5-37.2-90.5-92.7s32.7-99.2,86.3-99.2c60,0,76,52.8,76,86.6c-0.1,5.2-0.4,10.4-1.1,15.6L883.3,173.1z M981.3,149.2
			c0.4-21.3-8.7-54.3-46.4-54.3c-33.8,0-48.6,31.2-51.3,54.3H981.3z"/>
		<path class="st1" d="M1055.1,124.9c0-19-0.4-34.6-1.5-49.8h29.6l1.9,30.4h0.8c9.1-17.5,30.4-34.6,60.8-34.6
			c25.5,0,65,15.2,65,78.3V259h-33.5V153c0-29.6-11-54.3-42.6-54.3c-22,0-39.1,15.6-44.8,34.2c-1.6,5-2.4,10.3-2.3,15.6V259h-33.4
			V124.9z"/>
		<path class="st1" d="M1303.2,23.4c0.4,11.4-8,20.5-21.3,20.5c-11.8,0-20.1-9.1-20.1-20.5c0-11.8,8.7-20.9,20.9-20.9
			C1295.2,2.5,1303.2,11.6,1303.2,23.4z M1266,259V75.1h33.4V259H1266z"/>
		<path class="st1" d="M1354.9,124.9c0-19-0.4-34.6-1.5-49.8h29.6l1.9,30.4h0.8c9.1-17.5,30.4-34.6,60.8-34.6
			c25.5,0,65,15.2,65,78.3V259H1478V153c0-29.6-11-54.3-42.6-54.3c-22,0-39.1,15.6-44.8,34.2c-1.6,5-2.4,10.3-2.3,15.6V259h-33.4
			V124.9z"/>
		<path class="st1" d="M1724.3,75.1c-0.8,13.3-1.5,28.1-1.5,50.5v106.8c0,42.2-8.4,68-26.2,84c-17.9,16.7-43.7,22-66.9,22
			c-22,0-46.4-5.3-61.2-15.2l8.4-25.5c12.2,7.6,31.2,14.4,54,14.4c34.2,0,59.3-17.9,59.3-64.2v-20.5h-0.8
			c-10.3,17.1-30,30.8-58.5,30.8c-45.6,0-78.3-38.8-78.3-89.7c0-62.3,40.7-97.7,82.8-97.7c31.9,0,49.4,16.7,57.4,31.9h0.8l1.5-27.7
			H1724.3z M1689.7,147.7c0-5.7-0.4-10.6-1.9-15.2c-6.1-19.4-22.4-35.3-46.7-35.3c-31.9,0-54.7,27-54.7,69.5
			c0,36.1,18.2,66.1,54.3,66.1c20.5,0,39.1-12.9,46.4-34.2c1.8-5.8,2.7-11.8,2.7-17.9V147.7z"/>
		<path class="st1" d="M1773.7,224.8c9.9,6.5,27.4,13.3,44.1,13.3c24.3,0,35.7-12.2,35.7-27.4c0-16-9.5-24.7-34.2-33.8
			c-33.1-11.8-48.6-30-48.6-52.1c0-29.6,23.9-54,63.5-54c18.6,0,35,5.3,45.2,11.4l-8.4,24.3c-11.3-6.9-24.3-10.6-37.6-10.6
			c-19.8,0-30.8,11.4-30.8,25.1c0,15.2,11,22,35,31.2c31.9,12.2,48.3,28.1,48.3,55.5c0,32.3-25.1,55.1-68.8,55.1
			c-20.1,0-38.8-4.9-51.7-12.5L1773.7,224.8z"/>
		<path class="st2" d="M439.5,135.1c0-23.6-0.8-42.6-1.5-60h30l1.5,31.5h0.8c13.8-22.5,35.4-35.8,65.4-35.8
			c44.5,0,77.9,37.6,77.9,93.5c0,66.1-40.3,98.8-83.6,98.8c-24.3,0-45.6-10.6-56.6-28.9h-0.8l33.9,133.1l-67-33.2L439.5,135.1z
			 M472.5,184.1c0.1,4.6,0.6,9.2,1.5,13.7c6.1,23.2,26.2,39.2,50.2,39.2c35.3,0,55.9-28.9,55.9-71.1c0-36.9-19.4-68.4-54.7-68.4
			c-22.8,0-44.1,16.3-50.5,41.4c-1.3,4.4-2.1,9-2.3,13.7V184.1z"/>
		<ellipse class="st3" cx="529" cy="159.9" rx="21.5" ry="25.5"/>
		<ellipse class="st3" cx="735" cy="160.9" rx="21.5" ry="25.5"/>
	</g>
</g>
</svg>
